HIERARCHY
ROOT Hips
{
    OFFSET   0.000000   0.000000   0.000000
    CHANNELS 6 Xposition Yposition Zposition Zrotation Xrotation Yrotation
    JOINT Chest
    {
        OFFSET   0.000000   8.007230   0.000000
        CHANNELS 3 Zrotation Xrotation Yrotation
        JOINT Chest2
        {
            OFFSET   0.000000  22.077100   0.000000
            CHANNELS 3 Zrotation Xrotation Yrotation
            JOINT Neck
            {
                OFFSET   0.000000  23.255100   0.000000
                CHANNELS 3 Zrotation Xrotation Yrotation
                JOINT Head
                {
                    OFFSET   0.000000  14.370100   1.956600
                    CHANNELS 3 Zrotation Xrotation Yrotation
                    End Site
                    {
                        OFFSET   0.000000  19.566000   0.000000
                    }
                }
            }
            JOINT LeftCollar
            {
                OFFSET   3.911900  19.017000  -0.467063
                CHANNELS 3 Zrotation Xrotation Yrotation
                JOINT LeftShoulder
                {
                    OFFSET  10.383700   0.000000   0.000000
                    CHANNELS 3 Zrotation Xrotation Yrotation
                    JOINT LeftElbow
                    {
                        OFFSET  26.662100   0.001193   0.000980
                        CHANNELS 3 Zrotation Xrotation Yrotation
                        JOINT LeftWrist
                        {
                            OFFSET  28.869000  -0.000059  -0.000082
                            CHANNELS 3 Zrotation Xrotation Yrotation
                            JOINT LeftFinger0
                            {
                                OFFSET   2.044650  -2.323450   3.252850
                                CHANNELS 3 Zrotation Xrotation Yrotation
                                JOINT LeftFinger01
                                {
                                    OFFSET   3.088130   0.000000   0.000000
                                    CHANNELS 3 Zrotation Xrotation Yrotation
                                    JOINT LeftFinger02
                                    {
                                        OFFSET   2.639460   0.000000   0.000000
                                        CHANNELS 3 Zrotation Xrotation Yrotation
                                        End Site
                                        {
                                            OFFSET   2.582190   0.000000   0.000000
                                        }
                                    }
                                }
                            }
                            JOINT LeftFinger1
                            {
                                OFFSET   8.364480   0.000000   3.252850
                                CHANNELS 3 Zrotation Xrotation Yrotation
                                JOINT LeftFinger11
                                {
                                    OFFSET   4.646930   0.000000   0.000000
                                    CHANNELS 3 Zrotation Xrotation Yrotation
                                    JOINT LeftFinger12
                                    {
                                        OFFSET   2.323470   0.000000   0.000000
                                        CHANNELS 3 Zrotation Xrotation Yrotation
                                        End Site
                                        {
                                            OFFSET   2.273050   0.000000   0.000000
                                        }
                                    }
                                }
                            }
                            JOINT LeftFinger2
                            {
                                OFFSET   8.364490   0.000016   1.078090
                                CHANNELS 3 Zrotation Xrotation Yrotation
                                JOINT LeftFinger21
                                {
                                    OFFSET   5.111610   0.000000   0.000000
                                    CHANNELS 3 Zrotation Xrotation Yrotation
                                    JOINT LeftFinger22
                                    {
                                        OFFSET   2.788150   0.000016   0.000000
                                        CHANNELS 3 Zrotation Xrotation Yrotation
                                        End Site
                                        {
                                            OFFSET   2.727660   0.000000   0.000000
                                        }
                                    }
                                }
                            }
                            JOINT LeftFinger3
                            {
                                OFFSET   7.899780   0.000015  -1.078090
                                CHANNELS 3 Zrotation Xrotation Yrotation
                                JOINT LeftFinger31
                                {
                                    OFFSET   4.646930   0.000000   0.000000
                                    CHANNELS 3 Zrotation Xrotation Yrotation
                                    JOINT LeftFinger32
                                    {
                                        OFFSET   2.323470   0.000000   0.000000
                                        CHANNELS 3 Zrotation Xrotation Yrotation
                                        End Site
                                        {
                                            OFFSET   2.273050   0.000000   0.000000
                                        }
                                    }
                                }
                            }
                            JOINT LeftFinger4
                            {
                                OFFSET   7.435090   0.000000  -3.252850
                                CHANNELS 3 Zrotation Xrotation Yrotation
                                JOINT LeftFinger41
                                {
                                    OFFSET   3.717550   0.000000   0.000000
                                    CHANNELS 3 Zrotation Xrotation Yrotation
                                    JOINT LeftFinger42
                                    {
                                        OFFSET   1.858770   0.000000   0.000000
                                        CHANNELS 3 Zrotation Xrotation Yrotation
                                        End Site
                                        {
                                            OFFSET   1.818440   0.000000   0.000000
                                        }
                                    }
                                }
                            }
                        }
                    }
                }
            }
            JOINT RightCollar
            {
                OFFSET  -3.911910  19.017000  -0.467062
                CHANNELS 3 Zrotation Xrotation Yrotation
                JOINT RightShoulder
                {
                    OFFSET -10.383700   0.000014   0.000000
                    CHANNELS 3 Zrotation Xrotation Yrotation
                    JOINT RightElbow
                    {
                        OFFSET -26.662100   0.001225   0.001091
                        CHANNELS 3 Zrotation Xrotation Yrotation
                        JOINT RightWrist
                        {
                            OFFSET -28.869000  -0.000020  -0.000085
                            CHANNELS 3 Zrotation Xrotation Yrotation
                            JOINT RightFinger0
                            {
                                OFFSET  -2.044650  -2.323490   3.252850
                                CHANNELS 3 Zrotation Xrotation Yrotation
                                JOINT RightFinger01
                                {
                                    OFFSET  -3.088130   0.000000   0.000000
                                    CHANNELS 3 Zrotation Xrotation Yrotation
                                    JOINT RightFinger02
                                    {
                                        OFFSET  -2.639460   0.000000   0.000000
                                        CHANNELS 3 Zrotation Xrotation Yrotation
                                        End Site
                                        {
                                            OFFSET  -2.582190   0.000000   0.000000
                                        }
                                    }
                                }
                            }
                            JOINT RightFinger1
                            {
                                OFFSET  -8.364480   0.000000   3.252850
                                CHANNELS 3 Zrotation Xrotation Yrotation
                                JOINT RightFinger11
                                {
                                    OFFSET  -4.646930   0.000000   0.000000
                                    CHANNELS 3 Zrotation Xrotation Yrotation
                                    JOINT RightFinger12
                                    {
                                        OFFSET  -2.323470   0.000000   0.000000
                                        CHANNELS 3 Zrotation Xrotation Yrotation
                                        End Site
                                        {
                                            OFFSET  -2.273050   0.000000   0.000000
                                        }
                                    }
                                }
                            }
                            JOINT RightFinger2
                            {
                                OFFSET  -8.364480   0.000000   1.078090
                                CHANNELS 3 Zrotation Xrotation Yrotation
                                JOINT RightFinger21
                                {
                                    OFFSET  -5.111620   0.000000   0.000000
                                    CHANNELS 3 Zrotation Xrotation Yrotation
                                    JOINT RightFinger22
                                    {
                                        OFFSET  -2.788160   0.000000   0.000000
                                        CHANNELS 3 Zrotation Xrotation Yrotation
                                        End Site
                                        {
                                            OFFSET  -2.727660   0.000000   0.000000
                                        }
                                    }
                                }
                            }
                            JOINT RightFinger3
                            {
                                OFFSET  -7.899780   0.000000  -1.078090
                                CHANNELS 3 Zrotation Xrotation Yrotation
                                JOINT RightFinger31
                                {
                                    OFFSET  -4.646930   0.000000   0.000000
                                    CHANNELS 3 Zrotation Xrotation Yrotation
                                    JOINT RightFinger32
                                    {
                                        OFFSET  -2.323470   0.000000   0.000000
                                        CHANNELS 3 Zrotation Xrotation Yrotation
                                        End Site
                                        {
                                            OFFSET  -2.273050   0.000000   0.000000
                                        }
                                    }
                                }
                            }
                            JOINT RightFinger4
                            {
                                OFFSET  -7.435090   0.000000  -3.252850
                                CHANNELS 3 Zrotation Xrotation Yrotation
                                JOINT RightFinger41
                                {
                                    OFFSET  -3.717550   0.000000   0.000000
                                    CHANNELS 3 Zrotation Xrotation Yrotation
                                    JOINT RightFinger42
                                    {
                                        OFFSET  -1.858760   0.000000   0.000000
                                        CHANNELS 3 Zrotation Xrotation Yrotation
                                        End Site
                                        {
                                            OFFSET  -1.818440   0.000000   0.000000
                                        }
                                    }
                                }
                            }
                        }
                    }
                }
            }
        }
    }
    JOINT LeftHip
    {
        OFFSET   9.783030   0.000000   0.000000
        CHANNELS 3 Zrotation Xrotation Yrotation
        JOINT LeftKnee
        {
            OFFSET   0.000063 -41.789100   0.000608
            CHANNELS 3 Zrotation Xrotation Yrotation
            JOINT LeftAnkle
            {
                OFFSET   0.000048 -41.133200  -0.000184
                CHANNELS 3 Zrotation Xrotation Yrotation
                JOINT LeftToe
                {
                    OFFSET   0.000000  -6.358960  14.674500
                    CHANNELS 3 Zrotation Xrotation Yrotation
                    End Site
                    {
                        OFFSET   0.000000   0.000000   3.913200
                    }
                }
            }
        }
    }
    JOINT RightHip
    {
        OFFSET  -9.783030   0.000000   0.000000
        CHANNELS 3 Zrotation Xrotation Yrotation
        JOINT RightKnee
        {
            OFFSET   0.000071 -41.789100   0.001239
            CHANNELS 3 Zrotation Xrotation Yrotation
            JOINT RightAnkle
            {
                OFFSET   0.000037 -41.133200  -0.000166
                CHANNELS 3 Zrotation Xrotation Yrotation
                JOINT RightToe
                {
                    OFFSET   0.000000  -6.358960  14.674500
                    CHANNELS 3 Zrotation Xrotation Yrotation
                    End Site
                    {
                        OFFSET   0.000000   0.000000   3.913200
                    }
                }
            }
        }
    }
}
MOTION
Frames: 4
Frame Time:   0.016667
  3.969830  89.125900  -0.610110   0.280074 -25.358700   0.128039  -4.743930  16.415900   6.354660 -12.212100  32.083900  15.124500 -10.200500  -7.178720  -1.288210 -17.408700 -13.175700 -10.802300  -4.711910 -12.096400   6.563590 -57.779900  34.868800 -53.183700  -3.112880   6.665040 -123.410000  75.909400 -20.631400 -52.047100  38.016800  21.870000 -58.246700 -23.652500  -0.007922   0.003938  -6.826290  -0.002661  -0.002598 -18.942800  -3.318780   9.575870 -15.726200  -0.000132   0.000099 -11.008400   0.000326   0.001274 -23.915600  -4.153240   9.280250 -24.252900  -0.001406   0.000860 -16.152500  -0.000105   0.000847 -22.326500  -3.891820   9.391030 -22.646300  -0.001202   0.000242 -15.082500   0.001628  -0.000895 -20.738800  -3.629200   9.494510 -31.560600   0.000023  -0.004403 -21.019300   0.002346  -0.005104   1.168110  -8.902220  12.828500  61.183800  36.702400  60.026500  -3.809600   0.585371 114.339000 -78.365600 -26.948800  53.745400 -44.080200  35.623200  76.139900   0.561498   0.003895  -0.000745  -4.719250  -0.003898  -0.001503  30.528600  -0.673722  -1.142680  24.983500  -0.000230   0.003821  17.488400  -0.000487  -0.004974  28.429300  -0.631572  -1.166510  35.455500  -0.000144   0.005859  23.613400   0.000444   0.002640  28.770800  -1.335920  -2.431360  42.859900   0.000575   0.001494  28.544800   0.001341   0.001832  35.837300  -3.655720  -5.046890  53.997400  -0.000624   0.000423  35.962300   0.003315  -0.000372  -1.164430  24.846100  -0.167317  -0.387441   2.649330   9.780720  -2.322480  -2.829680   0.177986  -0.000000   0.000000  -0.000000  -3.832660  18.285000  -5.927740  -2.283630  16.784000 -13.513100   3.702320  -7.437420  -2.957970   0.000000   0.000000   0.000000
  4.001190  89.125100  -0.663671   0.255937 -25.274200   0.078288  -4.636440  16.429200   6.331850 -11.980600  32.128700  15.045900 -10.156100  -7.196530  -1.285660 -17.336900 -13.220100 -11.163700  -4.749540 -12.142900   6.521530 -57.661800  34.901500 -53.322900  -3.023150   6.382530 -123.262000  75.862400 -20.570900 -51.852200  38.061800  21.952000 -58.284100 -23.641800  -0.007913   0.003874  -6.820920  -0.002638  -0.002646 -18.973100  -3.334490   9.602480 -15.752700  -0.000147   0.000085 -11.026900   0.000311   0.001239 -23.949100  -4.163050   9.282410 -24.287200  -0.001450   0.000859 -16.175300  -0.000153   0.000822 -22.353500  -3.901320   9.394590 -22.674200  -0.001235   0.000229 -15.101000   0.001558  -0.000896 -20.755400  -3.635970   9.499650 -31.586500   0.000000  -0.004429 -21.036500   0.002314  -0.005164   1.122220  -8.895950  12.776900  61.211400  36.715200  60.027500  -3.808460   0.398423 114.416000 -78.272900 -26.914100  53.770800 -44.071800  35.645800  76.180400   0.191007   0.003865  -0.000681  -4.904500  -0.003900  -0.001467  30.502200  -0.666420  -1.131270  24.961800  -0.000224   0.003994  17.473200  -0.000482  -0.005037  28.429500  -0.625068  -1.154640  35.442800  -0.000147   0.006005  23.604900   0.000443   0.002612  28.770900  -1.322940  -2.407460  42.851300   0.000575   0.001487  28.539000   0.001326   0.001809  35.811500  -3.646390  -5.037420  53.957800  -0.000632   0.000452  35.936000   0.003336  -0.000413  -1.176970  24.731100  -0.170254  -0.398725   2.650800   9.795600  -2.349430  -2.802180   0.215440  -0.000000   0.000000  -0.000000  -3.853170  18.177400  -5.922400  -2.281650  16.755300 -13.495700   3.689520  -7.413400  -2.927110  -0.000000   0.000000   0.000000
  4.034230  89.124300  -0.712424   0.229588 -25.190000   0.024361  -4.523610  16.439500   6.306380 -11.736000  32.168400  14.958900 -10.092200  -7.219580  -1.281650 -17.233500 -13.279500 -11.470000  -4.718870 -12.170800   6.475530 -57.601300  34.898500 -53.440800  -2.944610   6.128070 -123.118000  75.822600 -20.536700 -51.672700  38.098000  22.022100 -58.269100 -23.648600  -0.007898   0.003801  -6.824320  -0.002613  -0.002684 -18.993800  -3.348100   9.629630 -15.771200  -0.000159   0.000074 -11.039800   0.000299   0.001197 -23.961400  -4.175140   9.301230 -24.301100  -0.001494   0.000856 -16.184500  -0.000198   0.000797 -22.361300  -3.912060   9.414450 -22.683500  -0.001265   0.000212 -15.107300   0.001491  -0.000894 -20.761100  -3.645750   9.520450 -31.597200   0.000000  -0.004454 -21.043700   0.002255  -0.005235   1.131890  -8.869560  12.736400  61.204800  36.727000  60.044100  -3.815010   0.228776 114.495000 -78.192800 -26.888100  53.742400 -44.091900  35.637800  76.160000   0.009633   0.003849  -0.000619  -4.995180  -0.003900  -0.001446  30.460800  -0.677960  -1.152100  24.928100  -0.000223   0.004179  17.449700  -0.000466  -0.005106  28.429300  -0.636453  -1.175540  35.407700  -0.000146   0.006148  23.581600   0.000437   0.002583  28.769900  -1.321030  -2.403610  42.806400   0.000575   0.001487  28.509000   0.001313   0.001790  35.766300  -3.650070  -5.050220  53.889700  -0.000637   0.000475  35.890600   0.003354  -0.000452  -1.181170  24.627600  -0.174650  -0.413149   2.638060   9.772840  -2.386910  -2.775540   0.288419   0.000000   0.000000   0.000000  -3.873850  18.077800  -5.931980  -2.286210  16.712800 -13.463500   3.679530  -7.384080  -2.890890  -0.000000   0.000000   0.000000
  4.069390  89.123500  -0.757970   0.203618 -25.103100  -0.030217  -4.402500  16.447300   6.275620 -11.471500  32.205100  14.857500 -10.031800  -7.247530  -1.279190 -17.136800 -13.346900 -11.717900  -4.678320 -12.191400   6.417460 -57.539400  34.871700 -53.554300  -2.871690   5.890830 -122.995000  75.789400 -20.506200 -51.497400  38.128500  22.097600 -58.260400 -23.669900  -0.007880   0.003729  -6.834990  -0.002588  -0.002720 -19.013000  -3.361510   9.657040 -15.788500  -0.000170   0.000060 -11.051900   0.000287   0.001158 -23.968900  -4.188590   9.329500 -24.310800  -0.001537   0.000854 -16.191000  -0.000242   0.000772 -22.364300  -3.924000   9.442990 -22.688500  -0.001295   0.000195 -15.110600   0.001425  -0.000892 -20.762800  -3.656720   9.548870 -31.602500   0.000000  -0.004478 -21.047300   0.002199  -0.005306   1.158940  -8.836530  12.698500  61.179900  36.743600  60.074300  -3.815700   0.083741 114.583000 -78.135000 -26.857600  53.702100 -44.090100  35.620000  76.128500  -0.089420   0.003835  -0.000552  -5.044710  -0.003900  -0.001427  30.434000  -0.689501  -1.172930  24.906400  -0.000223   0.004366  17.434500  -0.000450  -0.005175  28.429200  -0.647839  -1.196440  35.382600  -0.000144   0.006291  23.564800   0.000432   0.002554  28.768900  -1.319120  -2.399760  42.769800   0.000574   0.001486  28.484700   0.001299   0.001770  35.724200  -3.653750  -5.063010  53.828700  -0.000641   0.000502  35.849900   0.003373  -0.000491  -1.186850  24.523200  -0.180761  -0.427145   2.625480   9.729250  -2.422320  -2.753700   0.378846  -0.000000   0.000000  -0.000000  -3.894340  17.980500  -5.950370  -2.293930  16.663700 -13.427000   3.677000  -7.356880  -2.853440  -0.000000   0.000000   0.000000
